<svg xmlns="http://www.w3.org/2000/svg" width="68" height="68" viewBox="0 0 68 68">
    <defs>
        <filter id="prefix__a">
            <feColorMatrix in="SourceGraphic" values="0 0 0 0 0.384314 0 0 0 0 0.607843 0 0 0 0 0.976471 0 0 0 1.000000 0"/>
        </filter>
    </defs>
    <g fill="none" fill-rule="evenodd" filter="url(#prefix__a)">
        <g>
            <path fill="#D0D6DF" d="M10 40c1.105 0 2 .895 2 2v8c0 1.105-.895 2-2 2H2c-1.105 0-2-.895-2-2v-8c0-1.105.895-2 2-2h8zm20 0c1.105 0 2 .895 2 2v8c0 1.105-.895 2-2 2h-8c-1.105 0-2-.895-2-2v-8c0-1.105.895-2 2-2h8zm20 0c1.105 0 2 .895 2 2v8c0 1.105-.895 2-2 2h-8c-1.105 0-2-.895-2-2v-8c0-1.105.895-2 2-2h8zM10 20c1.105 0 2 .895 2 2v8c0 1.105-.895 2-2 2H2c-1.105 0-2-.895-2-2v-8c0-1.105.895-2 2-2h8zm20 0c1.105 0 2 .895 2 2v8c0 1.105-.895 2-2 2h-8c-1.105 0-2-.895-2-2v-8c0-1.105.895-2 2-2h8zm20 0c1.105 0 2 .895 2 2v8c0 1.105-.895 2-2 2h-8c-1.105 0-2-.895-2-2v-8c0-1.105.895-2 2-2h8zM10 0c1.105 0 2 .895 2 2v8c0 1.105-.895 2-2 2H2c-1.105 0-2-.895-2-2V2C0 .895.895 0 2 0h8zm20 0c1.105 0 2 .895 2 2v8c0 1.105-.895 2-2 2h-8c-1.105 0-2-.895-2-2V2c0-1.105.895-2 2-2h8zm20 0c1.105 0 2 .895 2 2v8c0 1.105-.895 2-2 2h-8c-1.105 0-2-.895-2-2V2c0-1.105.895-2 2-2h8z" transform="translate(8 8)"/>
        </g>
    </g>
</svg>
