<svg xmlns="http://www.w3.org/2000/svg" width="60" height="60" viewBox="0 0 60 60">
    <path fill="#629BF9" fill-rule="evenodd" d="M58.003 30.165L28.237.4c-.255-.256-.602-.4-.964-.4H1.363C.612 0 0 .61 0 1.364v25.909c0 .361.144.708.4.964L12.273 40.11v18.526c0 .753.61 1.364 1.364 1.364.753 0 1.363-.61 1.363-1.364v-37.01c-2.66-.687-4.393-3.244-4.047-5.969.346-2.725 2.664-4.767 5.41-4.767 2.748 0 5.066 2.042 5.412 4.767.346 2.725-1.388 5.282-4.047 5.969v23.939l12.437 12.437c2.663 2.663 6.98 2.663 9.643 0l18.195-18.195c2.663-2.662 2.663-6.98 0-9.642z"/>
</svg>
