<svg xmlns="http://www.w3.org/2000/svg" width="68" height="68" viewBox="0 0 68 68">
    <path fill="#629BF9" d="M43.3 0v17.548c0 .565.43 1.031.98 1.09l.12.007H62v47.161c0 1.16-.9 2.108-2.043 2.188L59.8 68H9.2c-1.163 0-2.114-.898-2.194-2.037L7 65.806V2.194C7 1.034 7.9.086 9.043.006L9.2 0h34.1zm-9.946 48.053c-1.898 0-3.437 1.523-3.437 3.4 0 1.878 1.539 3.4 3.437 3.4 1.899 0 3.438-1.522 3.438-3.4 0-1.877-1.54-3.4-3.438-3.4zm2.75-29.466h-5.5l.688 24.933h4.125l.687-24.933zM45.5.585l16.042 15.867H45.5V.585z"/>
</svg>
