<svg xmlns="http://www.w3.org/2000/svg" width="68" height="68" viewBox="0 0 68 68">
    <g fill="none">
        <path fill="#E86C60" d="M65.988 26.591L51.07.754c-.25-.431-.696-.712-1.192-.75-.505-.047-.981.173-1.291.562C43.144 7.37 35.74 7.363 27.9 7.54c-8.302.188-16.872.573-22.71 9.127l16.683 28.36c.202-.119.38-.28.51-.485 4.976-7.82 12.597-8.167 20.665-8.35 8.108-.184 16.491-.2 22.799-7.89.397-.486.453-1.168.14-1.711z" transform="translate(1 1)"/>
        <path fill="#637792" d="M33.532 66.352c-.517 0-1.02-.266-1.3-.744L.676 11.967c-.422-.718-.182-1.642.536-2.064.718-.421 1.642-.182 2.064.535L34.83 64.08c.422.718.182 1.642-.536 2.064-.24.141-.503.208-.763.208z" transform="translate(1 1)"/>
    </g>
</svg>
