<svg xmlns="http://www.w3.org/2000/svg" width="62" height="65" viewBox="0 0 62 65">
    <defs>
        <filter id="hhg8bbujua">
            <feColorMatrix in="SourceGraphic" values="0 0 0 0 0.384314 0 0 0 0 0.607843 0 0 0 0 0.976471 0 0 0 1.000000 0"/>
        </filter>
    </defs>
    <g fill="none" fill-rule="evenodd" filter="url(#hhg8bbujua)" transform="translate(-3 -2)">
        <g fill="#000" fill-rule="nonzero" transform="translate(3 2)">
            <circle cx="48" cy="7.5" r="7.5"/>
            <path d="M19.405 43.61c-1.52-1.212-2.64-2.853-3.214-4.71L.804 58.43c-1.282 1.627-1.002 3.984.625 5.266 1.628 1.282 3.985 1.002 5.267-.625L21.168 44.7c-.626-.297-1.217-.663-1.762-1.09z"/>
            <path d="M61.385 27.677c-.455-1.593-2.115-2.516-3.709-2.061l-8.268 2.362s-5.949-10.145-5.955-10.152c-.684-1.315-1.8-2.355-3.159-2.947-.082-.043-13.65-5.651-13.65-5.651-1.212-.5-2.61-.156-3.45.852l-7.5 9c-.685.824-.88 1.95-.51 2.957.37 1.006 1.25 1.737 2.306 1.92 1.056.182 2.13-.213 2.816-1.037l6.094-7.304 5.088 2.1-11.25 14.063c-1.312 1.603-1.805 3.724-1.335 5.74.47 2.018 1.85 3.703 3.735 4.56.063.033 9.3 4.167 9.3 4.167l-8.4 8.928c-.919.976-1.247 2.367-.862 3.65.386 1.283 1.427 2.263 2.73 2.571 1.304.308 2.673-.103 3.592-1.079l12-12.75c.83-.881 1.183-2.11.948-3.297-.234-1.188-1.028-2.19-2.131-2.689l-7.447-3.36 9.251-11.565 3.795 6.366c.693 1.178 2.095 1.739 3.41 1.364l10.5-3c1.592-.455 2.515-2.115 2.06-3.709z"/>
        </g>
    </g>
</svg>
