<svg xmlns="http://www.w3.org/2000/svg" xmlns:xlink="http://www.w3.org/1999/xlink" width="68" height="68" viewBox="0 0 68 68">
    <defs>
        <filter id="prefix__a" width="196.4%" height="200%" x="-44.6%" y="-28.6%" filterUnits="objectBoundingBox">
            <feMorphology in="SourceAlpha" operator="dilate" radius="4" result="shadowSpreadOuter1"/>
            <feOffset dx="2" dy="13" in="shadowSpreadOuter1" result="shadowOffsetOuter1"/>
            <feGaussianBlur in="shadowOffsetOuter1" result="shadowBlurOuter1" stdDeviation="5.5"/>
            <feComposite in="shadowBlurOuter1" in2="SourceAlpha" operator="out" result="shadowBlurOuter1"/>
            <feColorMatrix in="shadowBlurOuter1" values="0 0 0 0 0.384313725 0 0 0 0 0.607843137 0 0 0 0 0.976470588 0 0 0 0.163570804 0"/>
        </filter>
        <filter id="prefix__c">
            <feColorMatrix in="SourceGraphic" values="0 0 0 0 0.384314 0 0 0 0 0.607843 0 0 0 0 0.976471 0 0 0 1.000000 0"/>
        </filter>
        <circle id="prefix__b" cx="28" cy="28" r="28"/>
    </defs>
    <g fill="none" fill-rule="evenodd">
        <g stroke-linejoin="round" transform="translate(6 6)">
            <use fill="#000" filter="url(#prefix__a)" xlink:href="#prefix__b"/>
            <use fill="#FFF" stroke="#FFF" stroke-width="8" xlink:href="#prefix__b"/>
        </g>
        <g filter="url(#prefix__c)" transform="translate(6 6)">
            <path fill="#000" fill-rule="nonzero" d="M27.632 0C12.396 0 0 12.396 0 27.632s12.396 27.632 27.632 27.632 27.632-12.396 27.632-27.632S42.868 0 27.632 0zm3.454 12.089c1.908 0 3.454 1.546 3.454 3.454 0 1.908-1.546 3.454-3.454 3.454-1.908 0-3.454-1.546-3.454-3.454 0-1.908 1.546-3.454 3.454-3.454zm3.045 29.438c-3.142 1.237-4.059 1.648-6.076 1.648-1.647 0-2.929-.402-3.842-1.205-1.805-1.59-1.501-3.883-.936-6.231l1.699-6.016c.328-1.238.993-3.768.062-4.656-.93-.887-3.098-.326-4.359.144l.454-1.853c1.82-.741 4.12-1.648 6.085-1.648 2.953 0 5.113 1.477 5.113 4.264 0 .26-.03.72-.091 1.38-.114 1.21-.149 1.131-2.035 7.808-.21.734-.537 2.293-.537 3.048 0 2.906 3.38 2.188 4.917 1.463l-.454 1.854z"/>
        </g>
    </g>
</svg>
