<svg xmlns="http://www.w3.org/2000/svg" width="17" height="17" viewBox="0 0 17 17">
    <defs>
        <filter id="83e9f5gj2a">
            <feColorMatrix in="SourceGraphic" values="0 0 0 0 0.384314 0 0 0 0 0.607843 0 0 0 0 0.976471 0 0 0 1.000000 0"/>
        </filter>
    </defs>
    <g fill="none" fill-rule="evenodd" filter="url(#83e9f5gj2a)">
        <path fill="#000" fill-rule="nonzero" d="M8.108 5.528V.258C6.744 1.106 5.676 2.69 5.05 4.57c.958.516 2.027.885 3.06.958zM4.423 8.108h3.685V6.265c-1.106-.073-2.248-.442-3.28-.958-.221.885-.369 1.843-.405 2.801zM4.828 11.646c1.032-.516 2.138-.884 3.28-.958V8.845H4.423c.036.958.184 1.917.405 2.801zM11.904 4.57C11.278 2.69 10.21 1.106 8.845.258v5.27c1.032-.073 2.064-.442 3.06-.958zM13.268 8.845c-.037 1.032-.184 2.1-.48 3.17.885.516 1.66 1.142 2.286 1.769 1.105-1.364 1.806-3.096 1.88-4.939h-3.686zM8.108 16.695v-5.27c-1.032.074-2.1.442-3.059.921.627 1.917 1.695 3.502 3.06 4.35zM12.568 4.201c.774-.479 1.474-1.031 2.027-1.621C13.378 1.29 11.757.405 9.95.11c1.18 1.033 2.064 2.507 2.617 4.091zM12.789 4.939c.295 1.068.442 2.137.479 3.17h3.685c-.073-1.88-.774-3.576-1.88-4.94-.626.627-1.4 1.254-2.284 1.77zM12.568 12.752c-.553 1.585-1.4 3.059-2.654 4.09 1.806-.294 3.428-1.215 4.68-2.469-.552-.59-1.252-1.142-2.026-1.621zM1.88 3.17C.774 4.533.074 6.228 0 8.108h3.686c.036-1.032.184-2.1.479-3.17C3.28 4.424 2.506 3.797 1.88 3.17zM4.386 12.752c-.774.479-1.474 1.032-2.027 1.621 1.216 1.29 2.838 2.175 4.68 2.47-1.216-1.032-2.1-2.506-2.653-4.091zM3.686 8.845H0c.074 1.88.774 3.575 1.88 4.939.626-.627 1.4-1.253 2.285-1.77-.295-1.068-.443-2.137-.48-3.169zM12.53 8.845H8.846v1.843c1.106.074 2.248.442 3.28.958.221-.884.369-1.843.406-2.8zM8.845 11.425v5.233c1.364-.847 2.433-2.432 3.06-4.312-.996-.479-2.028-.847-3.06-.92zM4.386 4.201c.553-1.584 1.4-3.058 2.653-4.09C5.233.405 3.612 1.327 2.396 2.58c.516.59 1.216 1.142 1.99 1.621zM12.125 5.307c-1.032.516-2.174.885-3.28.958v1.843h3.686c-.037-.958-.185-1.916-.406-2.8z"/>
    </g>
</svg>
