<svg xmlns="http://www.w3.org/2000/svg" width="68" height="68" viewBox="0 0 68 68">
    <defs>
        <filter id="prefix__a">
            <feColorMatrix in="SourceGraphic" values="0 0 0 0 0.384314 0 0 0 0 0.607843 0 0 0 0 0.976471 0 0 0 1.000000 0"/>
        </filter>
    </defs>
    <g fill="none" fill-rule="evenodd" filter="url(#prefix__a)">
        <g fill="#4F78A5" fill-rule="nonzero">
            <path d="M64.325 42.693L51.88 37.715c-.369-.147-.629-.481-.68-.874l-.413-3.307c4.383-2.243 7.14-6.753 7.139-11.677V11.719c-.007-3.954-3.023-7.253-6.96-7.615l-1.41-2.82C49.015.247 47.801-.238 46.697.14l-8.1 2.878c-1.827.71-3.415 1.922-4.58 3.497 3.393 3.093 5.328 7.471 5.33 12.062v1.093c.04 4.61 1.336 9.122 3.749 13.05.682 1.139.81 2.526.35 3.77-.46 1.246-1.461 2.214-2.72 2.634-.743.248-1.497.457-2.26.629l5.22 2.094c3.325 1.317 5.505 4.535 5.496 8.112v7.969c-.005.369-.058.736-.156 1.092h17.642c.603 0 1.092-.489 1.092-1.092V47.766c.008-2.237-1.356-4.25-3.436-5.073z" transform="translate(0 4)"/>
            <path d="M44.81 59.016H1.093c-.29 0-.569-.116-.774-.321C.114 58.49 0 58.21 0 57.92v-7.97c-.012-2.237 1.348-4.254 3.428-5.082L15.883 39.9c.37-.148.63-.485.68-.881l.304-2.433c-3.542.753-7.22.556-10.66-.571-.315-.105-.566-.347-.68-.658-.116-.31-.084-.657.087-.941 2.718-4.439 4.176-9.534 4.215-14.74v-1.092c0-7.243 5.872-13.115 13.115-13.115s13.115 5.872 13.115 13.115v1.093c.044 5.2 1.504 10.289 4.222 14.721.17.285.203.631.088.942-.115.311-.365.553-.68.658-3.441 1.127-7.12 1.324-10.66.57l.304 2.436c.051.393.311.727.68.873l12.453 4.992c2.079.827 3.438 2.842 3.427 5.08v7.968c.003.602-.481 1.093-1.083 1.099z" transform="translate(0 4)"/>
        </g>
    </g>
</svg>
