<svg xmlns="http://www.w3.org/2000/svg" width="68" height="68" viewBox="0 0 68 68">
    <path fill="#629BF9" fill-rule="evenodd" d="M14.387 6.25c1.335-.347 2.724.333 3.269 1.6l6.704 15.616c.447 1.044.217 2.254-.58 3.062l-6.426 6.52c2.053 3.397 4.478 6.555 7.23 9.415 2.86 2.755 6.02 5.18 9.422 7.227l6.52-6.426c.808-.804 2.023-1.037 3.07-.589l15.617 6.705c1.273.546 1.953 1.943 1.598 3.282l-3.246 12.292c-.327 1.265-1.488 2.134-2.794 2.092-14.29-.776-27.813-6.717-38.051-16.717C6.723 40.094.782 26.578 0 12.292c-.041-1.307.83-2.468 2.095-2.794zM39.11 0c15.422.017 27.92 12.514 27.936 27.936H61.46C61.445 15.599 51.448 5.601 39.11 5.587V0zm0 11.174c9.254.01 16.753 7.509 16.762 16.762h-5.587c0-6.171-5.003-11.174-11.175-11.174v-5.588z"/>
</svg>
