<svg xmlns="http://www.w3.org/2000/svg" width="68" height="68" viewBox="0 0 68 68">
    <path fill="#629BF9" fill-rule="evenodd" d="M34.707 1C18.156 1 5 13.961 5 30.267c0 7.944 2.97 15.47 8.912 20.905.425.418 17.4 15.47 17.824 15.887 1.698 1.255 4.244 1.255 5.518 0 .424-.418 17.824-15.47 17.824-15.887 5.941-5.436 8.912-12.961 8.912-20.905C64.414 13.96 51.258 1 34.707 1zm0 37.629c-4.668 0-8.488-3.763-8.488-8.362 0-4.6 3.82-8.362 8.488-8.362 4.668 0 8.488 3.763 8.488 8.362s-3.82 8.362-8.488 8.362z"/>
</svg>
